<?xml version="1.0" encoding="UTF-8"?>
<!DOCTYPE svg PUBLIC "-//W3C//DTD SVG 1.1//EN" "http://www.w3.org/Graphics/SVG/1.1/DTD/svg11.dtd">
<!-- Creator: CorelDRAW Standard 2024 (Evaluation Version) -->
<svg xmlns="http://www.w3.org/2000/svg" xml:space="preserve" width="64mm" height="68mm" version="1.1" style="shape-rendering:geometricPrecision; text-rendering:geometricPrecision; image-rendering:optimizeQuality; fill-rule:evenodd; clip-rule:evenodd"
viewBox="0 0 6400 6800"
 xmlns:xlink="http://www.w3.org/1999/xlink"
 xmlns:xodm="http://www.corel.com/coreldraw/odm/2003">
 <defs>
  <style type="text/css">
   <![CDATA[
    .fil0 {fill:none}
   ]]>
  </style>
   <clipPath id="id0">
    <path d="M2192.15 4480.74c172.13,48.35 340.35,48.97 504.65,1.85 -58.07,147.62 -27.86,274.26 90.63,379.93 530.09,287.92 1779.81,397.13 1606.96,-474.19 -40.62,-117.63 -109.6,-196.71 -206.95,-237.23 213.61,92 479.31,68.87 797.11,-69.4 98.97,46.49 214.76,70.3 347.39,71.43 431.59,51.06 716.99,-35.02 856.2,-258.24 24.26,-95.4 13.21,-196.65 -33.15,-303.76 -128.74,-166.23 -365.44,-260.75 -710.09,-283.57 28.47,-71.02 27.29,-150.63 -3.53,-238.83 -106.38,-174.63 -271.86,-264.47 -496.42,-269.5 328.24,-112.67 344.1,-250.88 47.58,-414.64 -191.21,-83.15 -429.12,-103.54 -713.72,-61.17 -297.63,-183.64 -618.92,-216.28 -963.88,-97.91 58.84,-302.13 -83.78,-455.37 -427.86,-459.72 -540.17,-89.17 -961.09,21 -1262.76,330.51 -78.4,185.92 -78.11,357.81 -246.78,430.11 -271.21,89.33 -358.17,246.8 -260.89,472.41 -138.92,21.91 -160.07,85.37 -63.45,190.37 -535.58,-80.65 -819.97,48.62 -853.16,387.8 -23.47,240 232.91,354.75 769.14,344.24 -1014.7,288.54 240.06,1337.8 1222.98,559.51z"/>
   </clipPath>
 </defs>
 <g id="Layer_x0020_1">
  <metadata id="CorelCorpID_0Corel-Layer"/>
  <g>
  </g>
  <g style="clip-path:url(#id0)">
   <g id="_2418324331296">
    <image transform="matrix(-1 -0 -0 1 6597.49 -1573.9)" x="0" y="0" width="7586.12" height="7586.12" xlink:href="gold_Images\gold_ImgID1.png"/>
   </g>
  </g>
  <path class="fil0" d="M2192.15 4480.74c172.13,48.35 340.35,48.97 504.65,1.85 -58.07,147.62 -27.86,274.26 90.63,379.93 530.09,287.92 1779.81,397.13 1606.96,-474.19 -40.62,-117.63 -109.6,-196.71 -206.95,-237.23 213.61,92 479.31,68.87 797.11,-69.4 98.97,46.49 214.76,70.3 347.39,71.43 431.59,51.06 716.99,-35.02 856.2,-258.24 24.26,-95.4 13.21,-196.65 -33.15,-303.76 -128.74,-166.23 -365.44,-260.75 -710.09,-283.57 28.47,-71.02 27.29,-150.63 -3.53,-238.83 -106.38,-174.63 -271.86,-264.47 -496.42,-269.5 328.24,-112.67 344.1,-250.88 47.58,-414.64 -191.21,-83.15 -429.12,-103.54 -713.72,-61.17 -297.63,-183.64 -618.92,-216.28 -963.88,-97.91 58.84,-302.13 -83.78,-455.37 -427.86,-459.72 -540.17,-89.17 -961.09,21 -1262.76,330.51 -78.4,185.92 -78.11,357.81 -246.78,430.11 -271.21,89.33 -358.17,246.8 -260.89,472.41 -138.92,21.91 -160.07,85.37 -63.45,190.37 -535.58,-80.65 -819.97,48.62 -853.16,387.8 -23.47,240 232.91,354.75 769.14,344.24 -1014.7,288.54 240.06,1337.8 1222.98,559.51z"/>
 </g>
</svg>
