<?xml version="1.0" encoding="UTF-8"?>
<!DOCTYPE svg PUBLIC "-//W3C//DTD SVG 1.1//EN" "http://www.w3.org/Graphics/SVG/1.1/DTD/svg11.dtd">
<!-- Creator: CorelDRAW Standard 2024 (Evaluation Version) -->
<svg xmlns="http://www.w3.org/2000/svg" xml:space="preserve" width="64mm" height="68mm" version="1.1" style="shape-rendering:geometricPrecision; text-rendering:geometricPrecision; image-rendering:optimizeQuality; fill-rule:evenodd; clip-rule:evenodd"
viewBox="0 0 6400 6800"
 xmlns:xlink="http://www.w3.org/1999/xlink"
 xmlns:xodm="http://www.corel.com/coreldraw/odm/2003">
 <defs>
  <style type="text/css">
   <![CDATA[
    .fil0 {fill:none}
   ]]>
  </style>
   <clipPath id="id0">
    <path d="M2308.98 1794.86c556.23,46.13 1067.37,231.28 1533.4,555.43 323.55,166.67 474.14,453.05 451.8,859.16 316.62,65.62 523.83,147.91 621.64,246.88 192.34,4.59 382.7,46.99 571.08,127.17 252.98,9.79 491,44.03 714.08,102.71 57.27,99.21 53.25,172.27 -12.06,219.19 -214.43,13.59 -283.74,26.52 -207.92,38.77 211.21,49.5 316.81,74.25 316.81,74.25 -6.61,79.2 -9.9,118.8 -9.9,118.8 -149.31,32.05 -212.01,46.9 -188.11,44.55 26.4,89.11 39.6,133.65 39.6,133.65 -54.59,158.02 -62.84,237.22 -24.74,237.61 -290.41,46.2 -435.62,69.3 -435.62,69.3 -237.6,-141.9 -356.4,-212.85 -356.4,-212.85 -86.09,132.27 -129.14,198.41 -129.14,198.41 -258.15,-35.09 -387.22,-52.63 -387.22,-52.63 -75.19,122.81 -112.79,184.22 -112.79,184.22 -164.11,61.8 -222.4,88.94 -174.87,81.41 -284.37,21.32 -426.55,31.99 -426.55,31.99 -362.58,-42.65 -543.87,-63.98 -543.87,-63.98 -184.84,-53.32 -277.26,-79.98 -277.26,-79.98 -136.12,189.16 -191.91,278.02 -167.36,266.57 -252.89,24.59 -379.33,36.88 -379.33,36.88 -182.65,-77.27 -273.97,-115.91 -273.97,-115.91 -10.54,-112.39 -15.8,-168.59 -15.8,-168.59 -53.4,-128.47 -77.99,-181.15 -73.77,-158.05 -171.58,-36.06 -244.77,-52.87 -219.57,-50.43 -35.04,-61.34 -52.56,-92.01 -52.56,-92.01 -163.36,-67.59 -245.04,-101.39 -245.04,-101.39 131.43,-253.48 197.16,-380.23 197.16,-380.23 -301.45,112.19 -601.18,71.34 -899.21,-122.56 -517.51,-277.51 -864.21,-528.47 -1040.1,-752.87 793.78,-854.67 1529.64,-1279.82 2207.59,-1275.47z"/>
   </clipPath>
 </defs>
 <g id="Layer_x0020_1">
  <metadata id="CorelCorpID_0Corel-Layer"/>
  <g>
  </g>
  <g style="clip-path:url(#id0)">
   <g id="_2418325125056">
    <image x="-541.06" y="983.76" width="8424.89" height="4761.89" xlink:href="Starshards_Images\Starshards_ImgID1.png"/>
   </g>
  </g>
  <path class="fil0" d="M2308.98 1794.86c556.23,46.13 1067.37,231.28 1533.4,555.43 323.55,166.67 474.14,453.05 451.8,859.16 316.62,65.62 523.83,147.91 621.64,246.88 192.34,4.59 382.7,46.99 571.08,127.17 252.98,9.79 491,44.03 714.08,102.71 57.27,99.21 53.25,172.27 -12.06,219.19 -214.43,13.59 -283.74,26.52 -207.92,38.77 211.21,49.5 316.81,74.25 316.81,74.25 -6.61,79.2 -9.9,118.8 -9.9,118.8 -149.31,32.05 -212.01,46.9 -188.11,44.55 26.4,89.11 39.6,133.65 39.6,133.65 -54.59,158.02 -62.84,237.22 -24.74,237.61 -290.41,46.2 -435.62,69.3 -435.62,69.3 -237.6,-141.9 -356.4,-212.85 -356.4,-212.85 -86.09,132.27 -129.14,198.41 -129.14,198.41 -258.15,-35.09 -387.22,-52.63 -387.22,-52.63 -75.19,122.81 -112.79,184.22 -112.79,184.22 -164.11,61.8 -222.4,88.94 -174.87,81.41 -284.37,21.32 -426.55,31.99 -426.55,31.99 -362.58,-42.65 -543.87,-63.98 -543.87,-63.98 -184.84,-53.32 -277.26,-79.98 -277.26,-79.98 -136.12,189.16 -191.91,278.02 -167.36,266.57 -252.89,24.59 -379.33,36.88 -379.33,36.88 -182.65,-77.27 -273.97,-115.91 -273.97,-115.91 -10.54,-112.39 -15.8,-168.59 -15.8,-168.59 -53.4,-128.47 -77.99,-181.15 -73.77,-158.05 -171.58,-36.06 -244.77,-52.87 -219.57,-50.43 -35.04,-61.34 -52.56,-92.01 -52.56,-92.01 -163.36,-67.59 -245.04,-101.39 -245.04,-101.39 131.43,-253.48 197.16,-380.23 197.16,-380.23 -301.45,112.19 -601.18,71.34 -899.21,-122.56 -517.51,-277.51 -864.21,-528.47 -1040.1,-752.87 793.78,-854.67 1529.64,-1279.82 2207.59,-1275.47z"/>
 </g>
</svg>
